<svg width="21" height="21" viewBox="0 0 21 21" fill="none" xmlns="http://www.w3.org/2000/svg">
<path d="M9.60326 2.79599C9.97008 2.05274 11.0299 2.05274 11.3967 2.79599L13.2063 6.46248C13.3519 6.75762 13.6335 6.96219 13.9592 7.00952L18.0054 7.59747C18.8256 7.71665 19.1531 8.72462 18.5596 9.30316L15.6318 12.1571C15.3961 12.3869 15.2885 12.7179 15.3442 13.0423L16.0353 17.0721C16.1754 17.889 15.318 18.512 14.5844 18.1263L10.9653 16.2236C10.674 16.0705 10.326 16.0705 10.0347 16.2236L6.41562 18.1263C5.68199 18.512 4.82456 17.889 4.96467 17.0721L5.65585 13.0423C5.71148 12.7179 5.60393 12.3869 5.36825 12.1571L2.44038 9.30316C1.84687 8.72462 2.17438 7.71665 2.9946 7.59747L7.04081 7.00952C7.36652 6.96219 7.64808 6.75762 7.79374 6.46248L9.60326 2.79599Z" fill="#2D2D2D"/>
</svg>
