<svg width="20" height="21" viewBox="0 0 20 21" fill="none" xmlns="http://www.w3.org/2000/svg">
<path d="M9.10326 2.79599C9.47008 2.05274 10.5299 2.05274 10.8967 2.79599L12.7063 6.46248C12.8519 6.75762 13.1335 6.96219 13.4592 7.00952L17.5054 7.59747C18.3256 7.71665 18.6531 8.72462 18.0596 9.30316L15.1318 12.1571C14.8961 12.3869 14.7885 12.7179 14.8442 13.0423L15.5353 17.0721C15.6754 17.889 14.818 18.512 14.0844 18.1263L10.4653 16.2236C10.174 16.0705 9.82598 16.0705 9.53466 16.2236L5.91562 18.1263C5.18199 18.512 4.32456 17.889 4.46467 17.0721L5.15585 13.0423C5.21148 12.7179 5.10393 12.3869 4.86825 12.1571L1.94038 9.30316C1.34687 8.72462 1.67438 7.71665 2.4946 7.59747L6.54081 7.00952C6.86652 6.96219 7.14808 6.75762 7.29374 6.46248L9.10326 2.79599Z" fill="#2D2D2D"/>
</svg>
